<svg xmlns="http://www.w3.org/2000/svg" width="123" height="26" viewBox="0 0 123 26">
    <g fill="none" fill-rule="evenodd">
        <path fill="#009B3A" fill-rule="nonzero" d="M94.691 7.965l-5.366.965a1.637 1.637 0 0 0 .578 3.222l5.366-.965a2.057 2.057 0 0 1 2.379 1.326c.416.95.06 2.06-.83 2.592l-7.876 5.1a2.306 2.306 0 0 1-2.386.092 2.3 2.3 0 0 1-1.22-2.052V5.686A5.534 5.534 0 0 0 82.405.757a5.533 5.533 0 0 0-5.73.22L56.866 13.81a5.308 5.308 0 0 0-2.095 6.544 5.309 5.309 0 0 0 6 3.344l17.3-3.11a1.637 1.637 0 0 0-.578-3.222l-17.3 3.11a2.056 2.056 0 0 1-2.378-1.325 2.058 2.058 0 0 1 .832-2.593L78.455 3.724a2.305 2.305 0 0 1 2.386-.092 2.306 2.306 0 0 1 1.22 2.053v12.563a5.535 5.535 0 0 0 2.931 4.929c.823.452 1.747.69 2.686.693a5.585 5.585 0 0 0 3.044-.914l7.876-5.1a5.3 5.3 0 0 0 2.1-6.546 5.31 5.31 0 0 0-6-3.344m27.7 3.344a5.307 5.307 0 0 0-6-3.344l-5.366.965a1.637 1.637 0 0 0 .578 3.222l5.366-.965a2.056 2.056 0 0 1 2.378 1.325c.416.95.061 2.06-.829 2.592l-7.877 5.1a2.306 2.306 0 0 1-2.386.092 2.3 2.3 0 0 1-1.224-2.049V1.709a1.638 1.638 0 0 0-3.277 0v16.539a5.536 5.536 0 0 0 2.937 4.929c.824.452 1.747.69 2.687.693a5.585 5.585 0 0 0 3.044-.914l7.877-5.1a5.307 5.307 0 0 0 2.092-6.547"/>
        <path fill="#10002B" fill-rule="nonzero"
               d="M47.715 6.992a.721.721 0 0 0-.631.416c-.27.58-.86.942-1.5.917a1.581 1.581 0 0 1-1.7-1.521 8.945 8.945 0 0 1 0-1.535 1.585 1.585 0 0 1 1.7-1.524 1.577 1.577 0 0 1 1.5.923c.117.244.36.402.631.41a.639.639 0 0 0 .7-.665 1.376 1.376 0 0 0-.208-.655 2.875 2.875 0 0 0-2.64-1.4 2.92 2.92 0 0 0-3.1 2.71 12.331 12.331 0 0 0 0 1.941 2.926 2.926 0 0 0 3.1 2.713 2.876 2.876 0 0 0 2.643-1.406c.12-.198.19-.423.2-.655a.638.638 0 0 0-.7-.664l.005-.005zM20.61 9.597h2.865a2.717 2.717 0 0 0 2.962-3 2.636 2.636 0 0 0-2.962-2.82h-2.5V1.453h4.211a.685.685 0 0 0 .759-.7.681.681 0 0 0-.759-.685h-4.569a1.006 1.006 0 0 0-1.118 1.118v7.287a1.006 1.006 0 0 0 1.118 1.118l-.007.006zm.363-4.519h2.35a1.4 1.4 0 0 1 1.609 1.545 1.42 1.42 0 0 1-1.609 1.585h-2.348V5.079l-.002-.001zm17.026-2.724c-.93 0-1.847.234-2.663.682-.329.195-.366.349-.366.9v7.324a.683.683 0 0 0 .715.759.686.686 0 0 0 .722-.759V9.35c.54.242 1.124.367 1.716.369a2.839 2.839 0 0 0 2.949-2.7c.05-.654.05-1.311 0-1.965a2.872 2.872 0 0 0-3.073-2.7zm1.642 4.45a1.561 1.561 0 0 1-1.689 1.528 3.084 3.084 0 0 1-1.545-.4V4.141a3.053 3.053 0 0 1 1.545-.4 1.56 1.56 0 0 1 1.689 1.531 9 9 0 0 1 0 1.535v-.003zM30.41 2.35a5.444 5.444 0 0 0-1.992.393c-.39.159-.557.386-.554.688a.606.606 0 0 0 .608.617 1.57 1.57 0 0 0 .53-.137c.415-.16.855-.246 1.3-.252 1.1 0 1.554.416 1.554 1.269v.574a6.376 6.376 0 0 0-1.749-.245c-1.81 0-2.693 1.031-2.693 2.163 0 1.309.991 2.293 2.743 2.293.99.02 1.965-.235 2.817-.738a.554.554 0 0 0 .269-.537V4.959c0-1.79-1.031-2.61-2.831-2.61l-.002.001zm1.446 5.778a3.521 3.521 0 0 1-1.571.386c-.923 0-1.5-.4-1.5-1.094 0-.628.494-1.115 1.494-1.115a5.229 5.229 0 0 1 1.578.252l-.001 1.571zm-16.39.292l-2.478-2.48 2.35-2.35a.794.794 0 0 0 .275-.572.586.586 0 0 0-.611-.6.747.747 0 0 0-.565.278l-2.388 2.383a.612.612 0 0 1-.455.2h-.487V3.173a.682.682 0 0 0-.719-.759.681.681 0 0 0-.713.759v5.72a.684.684 0 0 0 .715.762.685.685 0 0 0 .719-.762V6.611h.408c.173 0 .34.072.456.2l2.548 2.548c.145.18.362.287.593.292a.615.615 0 0 0 .641-.635.831.831 0 0 0-.289-.6v.004zm-6.891.538a1.267 1.267 0 0 0-.1-.465L5.822 1.257C5.503.374 5.036-.002 4.294-.002S3.085.374 2.766 1.257L.097 8.497c-.06.147-.095.305-.1.464a.691.691 0 0 0 .715.688.739.739 0 0 0 .735-.588l.863-2.46h3.945l.87 2.467a.733.733 0 0 0 .729.581.693.693 0 0 0 .721-.691zm-5.8-3.671L4.09 1.54c.05-.131.094-.178.191-.178s.141.047.188.178l1.322 3.747H2.775z"/>
        <path fill="#10002B" d="M1.44 24.135c.196 0 .36-.072.408-.388l1.256-8.591c.036-.252.1-.324.232-.324.108 0 .172.056.228.284l1.968 8.031c.176.704.5.988 1.051.988.536 0 .86-.284 1.036-.98l1.992-8.04c.056-.227.12-.283.228-.283.132 0 .204.072.24.324l1.284 8.583c.04.26.156.396.424.396.24 0 .428-.128.428-.368a1.28 1.28 0 0 0-.02-.224l-1.3-8.591c-.104-.7-.492-.952-1.056-.952-.516 0-.864.252-1.004.832l-1.983 8.18c-.048.2-.1.291-.248.291s-.184-.092-.232-.284L4.38 14.832c-.14-.58-.492-.832-1.008-.832-.564 0-.952.252-1.06.944l-1.296 8.675a.666.666 0 0 0-.016.148c0 .24.204.368.44.368zm15.646-7.475c-1.716 0-2.932 1.164-3.092 2.852-.052.527-.052 1.331.008 1.863.176 1.688 1.368 2.824 3.152 2.824.82 0 1.52-.156 2.156-.472.224-.116.408-.264.4-.476-.008-.216-.148-.36-.344-.36-.144 0-.228.044-.404.116a4.495 4.495 0 0 1-1.808.372c-1.352 0-2.224-.812-2.344-2.04-.012-.164-.028-.332-.032-.516h4.608c.564 0 .648-.1.648-.692v-.52c0-1.707-1.112-2.951-2.948-2.951zm2.124 3.403h-4.432c.004-.183.02-.355.032-.515.116-1.228.992-2.068 2.276-2.068 1.356 0 2.256.904 2.124 2.583zm9.382 3.204h-.648v-5.711c0-.62-.176-.796-.8-.796h-3.248c-.62 0-.795.176-.795.796v1.7c0 2.34-.276 4.011-1.184 4.011h-.072c-.26 0-.408.156-.408.436v1.568c0 .284.148.436.408.436s.408-.152.408-.436v-1.2h5.931v1.2c0 .284.148.436.408.436s.408-.152.408-.436v-1.568c0-.28-.148-.436-.408-.436zm-4.672-4.023v-1.68h3.204v5.703h-3.98c.64-.756.776-2.244.776-4.023z"/>
    </g>
</svg>
